:SAMPLES-PER-SECOND 30
:FULLY-SPECIFIED
:DEGREES
78
root  -35.1192 20.6459 -1.87699 -61.1096 85.423 -47.0018
RightUpLeg  -33.2108 1.17697 -8.11912
RightLeg  130.689 3.15865 9.84179
RightFoot  -13.9408 0.100469 11.2159
RightToes  2.85217e-009 -3.18055e-015 8.94531e-016
Spine  61.5698 0.108783 -0.388845
Spine1  10.391 1.06822 -6.0486
HEad  -24.5976 -2.73532 5.86699
LeftShoulder1  0 -2.69403e-036 -1.28585e-037
LeftArm  -6.73604 -52.034 -73.3815
LeftForeArm  -129.888 -51.5546 166.84
LeftHand  0.0278142 3.93 15.8073
RightShoulder  -2.48481e-017 0 -8.08114e-019
RightArm  -1.43999 40.4678 76.1456
RightForeArm  -88.0433 46.8939 -153.652
RightHand  2.90545 -14.6828 -19.3364
LeftUpLeg  -73.5152 -5.54164 -0.815488
LeftLeg  103.809 -17.673 13.3846
LeftFoot  -19.4984 -0.0896903 -0.601991
LeftToes  -3.29237e-010 -4.9359e-011 -7.59376e-011
79
root  -34.4971 21.1073 -1.95727 -72.4736 84.5055 -58.7692
RightUpLeg  -37.8417 0.388722 -6.78647
RightLeg  131.376 4.26814 8.46885
RightFoot  -7.90676 -0.418857 9.37889
RightToes  2.85217e-009 -3.18055e-015 8.94531e-016
Spine  61.792 0.602794 -0.918145
Spine1  9.2189 1.22943 -5.50548
HEad  -24.0369 -2.28974 5.77378
LeftShoulder1  0 -2.69403e-036 -1.28585e-037
LeftArm  -7.53737 -51.7152 -72.3426
LeftForeArm  -131.007 -51.5229 166.949
LeftHand  0.125234 4.24794 15.5549
RightShoulder  -2.48481e-017 0 -8.08114e-019
RightArm  -1.3256 40.2185 75.7068
RightForeArm  -88.3103 46.8899 -153.675
RightHand  2.96245 -14.7337 -19.8773
LeftUpLeg  -71.8457 -5.84107 0.296436
LeftLeg  103.855 -17.6511 13.2738
LeftFoot  -21.14 -0.135668 -1.07366
LeftToes  -3.29237e-010 -4.9359e-011 -7.59376e-011
80
root  -33.7667 21.5952 -2.10563 -80.597 83.2499 -67.174
RightUpLeg  -43.0567 -1.48065 -4.7539
RightLeg  131.367 7.03906 5.44649
RightFoot  -9.94689 -0.192312 6.21246
RightToes  2.85217e-009 -3.18055e-015 8.94531e-016
Spine  61.5847 0.364716 -0.728928
Spine1  8.93199 1.30171 -5.1042
HEad  -23.7882 -1.7461 5.71933
LeftShoulder1  0 -2.69403e-036 -1.28585e-037
LeftArm  -8.09892 -51.5274 -71.195
LeftForeArm  -132.062 -51.5017 167.048
LeftHand  0.203765 4.56728 15.9392
RightShoulder  -2.48481e-017 0 -8.08114e-019
RightArm  -1.23236 40.3715 75.2555
RightForeArm  -88.4919 46.9652 -153.584
RightHand  3.04081 -14.8722 -20.3608
LeftUpLeg  -69.765 -5.69767 1.46814
LeftLeg  104.237 -17.4877 12.5084
LeftFoot  -23.135 -0.191739 -1.44731
LeftToes  -3.29237e-010 -4.9359e-011 -7.59376e-011
81
root  -32.9621 22.0459 -2.30261 -84.2046 81.8655 -70.9149
RightUpLeg  -48.9963 -3.55608 -1.79107
RightLeg  129.163 9.48961 2.88327
RightFoot  -15.1491 0.069065 3.62829
RightToes  2.85217e-009 -3.18055e-015 8.94531e-016
Spine  60.9711 -0.407154 -0.0810257
Spine1  9.57241 1.3599 -5.30568
HEad  -23.698 -1.41949 5.98615
LeftShoulder1  0 -2.69403e-036 -1.28585e-037
LeftArm  -8.28965 -51.6041 -70.2193
LeftForeArm  -132.046 -51.5047 167.047
LeftHand  0.190966 4.55338 16.2556
RightShoulder  -2.48481e-017 0 -8.08114e-019
RightArm  -1.1597 40.5719 74.9909
RightForeArm  -88.4355 47.0244 -153.499
RightHand  3.11818 -15.0122 -20.8105
LeftUpLeg  -67.4349 -5.01008 2.58091
LeftLeg  105 -17.2304 11.2395
LeftFoot  -25.1138 -0.236735 -1.58666
LeftToes  -3.29237e-010 -4.9359e-011 -7.59376e-011
82
root  -32.1644 22.3187 -2.48928 -85.6435 80.9677 -71.8492
RightUpLeg  -55.0115 -5.3383 1.55116
RightLeg  125.05 9.95622 2.57675
RightFoot  -18.8252 0.140489 2.62282
RightToes  2.85217e-009 -3.18055e-015 8.94531e-016
Spine  60.7383 -1.09806 0.268774
Spine1  10.3011 1.36876 -5.75531
HEad  -23.574 -1.38137 6.24588
LeftShoulder1  0 -2.69403e-036 -1.28585e-037
LeftArm  -8.27133 -51.6167 -69.797
LeftForeArm  -130.987 -51.499 166.97
LeftHand  0.106691 4.22194 15.9305
RightShoulder  -2.48481e-017 0 -8.08114e-019
RightArm  -1.01558 40.5319 74.679
RightForeArm  -88.3826 47.0724 -153.429
RightHand  3.19973 -15.1613 -21.2604
LeftUpLeg  -64.7846 -4.08061 3.13602
LeftLeg  106.191 -17.0448 9.9621
LeftFoot  -26.8996 -0.274924 -1.64983
LeftToes  -3.29237e-010 -4.9359e-011 -7.59376e-011
83
root  -31.4127 22.3864 -2.65415 -87.7773 80.3904 -72.8005
RightUpLeg  -60.5498 -7.1483 5.25442
RightLeg  119.825 9.60267 3.4378
RightFoot  -20.4799 0.151332 2.24905
RightToes  2.85217e-009 -3.18055e-015 8.94531e-016
Spine  61.1164 -1.61973 0.456709
Spine1  10.7316 1.23967 -5.75827
HEad  -23.3639 -1.32075 6.17672
LeftShoulder1  0 -2.69403e-036 -1.28585e-037
LeftArm  -8.17002 -51.4051 -69.9771
LeftForeArm  -130.406 -51.3853 167.018
LeftHand  0.0697893 4.02009 15.2917
RightShoulder  -2.48481e-017 0 -8.08114e-019
RightArm  -0.92948 40.3057 73.9795
RightForeArm  -88.5746 47.1313 -153.36
RightHand  3.2897 -15.3489 -21.6565
LeftUpLeg  -61.9943 -3.22775 3.39925
LeftLeg  107.814 -16.957 8.81435
LeftFoot  -28.4528 -0.320769 -1.78779
LeftToes  -3.29237e-010 -4.9359e-011 -7.59376e-011
84
root  -30.7257 22.2674 -2.79299 -90.9464 79.4949 -74.6519
RightUpLeg  -65.7085 -8.99216 9.81839
RightLeg  113.663 9.92793 3.31571
RightFoot  -21.3929 0.172574 2.2804
RightToes  2.85217e-009 -3.18055e-015 8.94531e-016
Spine  61.4785 -2.24732 1.08862
Spine1  11.3047 1.00549 -5.32202
HEad  -23.1034 -0.943501 5.99789
LeftShoulder1  0 -2.69403e-036 -1.28585e-037
LeftArm  -8.08877 -51.2546 -70.3499
LeftForeArm  -131.175 -51.1795 167.244
LeftHand  0.132756 4.21467 14.9981
RightShoulder  -2.48481e-017 0 -8.08114e-019
RightArm  -1.08321 40.0935 72.926
RightForeArm  -88.9666 47.1504 -153.361
RightHand  3.3836 -15.5498 -22.0329
LeftUpLeg  -59.8271 -2.55598 4.16979
LeftLeg  110.035 -16.8632 7.52559
LeftFoot  -29.5483 -0.353152 -1.8721
LeftToes  -3.29237e-010 -4.9359e-011 -7.59376e-011
